<?xml version="1.0" encoding="utf-8"?>
<!-- Generator: Adobe Illustrator 16.0.0, SVG Export Plug-In . SVG Version: 6.00 Build 0)  -->
<!DOCTYPE svg PUBLIC "-//W3C//DTD SVG 1.1//EN" "http://www.w3.org/Graphics/SVG/1.1/DTD/svg11.dtd">
<svg version="1.1" id="Layer_1" xmlns="http://www.w3.org/2000/svg" xmlns:xlink="http://www.w3.org/1999/xlink" x="0px" y="0px"
	 width="49px" height="33px" viewBox="0 0 49 33" enable-background="new 0 0 49 33" xml:space="preserve">
<path id="SVGID_1_" fill="#FFFFFF" d="M39.264,14.325c-1.388,0-2.693,0.326-3.859,0.891l-2.657-4.212
	c0.536-0.469,0.881-1.144,0.881-1.901c0-0.148-0.021-0.291-0.044-0.432h3.768c0.457,0,0.828-0.362,0.828-0.812
	c0-0.448-0.371-0.812-0.828-0.812h-4.793c-0.436-0.313-0.967-0.506-1.548-0.506c-0.579,0-1.11,0.192-1.547,0.506H24.67
	c-0.458,0-0.829,0.363-0.829,0.812c0,0.449,0.371,0.812,0.829,0.812h3.77c-0.025,0.141-0.047,0.283-0.047,0.432
	c0,1.411,1.174,2.56,2.617,2.56c0.064,0,0.125-0.014,0.188-0.019l0.323,0.515h-8.066h-0.763H7.907c-0.917,0-1.659,0.727-1.659,1.623
	c0,0.422,0.169,0.803,0.438,1.092C3.371,16.088,1,19.211,1,22.872c0,4.714,3.92,8.549,8.738,8.549c3.716,0,6.89-2.285,8.15-5.489
	h8.991c1.373,0,2.488-1.094,2.488-2.436v-3.438c0-0.449-0.371-0.812-0.829-0.812s-0.829,0.363-0.829,0.812v3.438
	c0,0.447-0.372,0.812-0.83,0.812h-8.536c0.08-0.469,0.133-0.945,0.133-1.436c0-2.867-1.456-5.402-3.677-6.953l0.289-0.515h5.115
	v0.401c0,1.342,1.116,2.435,2.488,2.435H31.6c0.119,0,0.233-0.019,0.35-0.034c-0.898,1.343-1.428,2.943-1.428,4.666
	c0,4.715,3.922,8.549,8.739,8.549c4.818,0,8.739-3.834,8.739-8.549C48,18.159,44.081,14.325,39.264,14.325z M15.711,22.872
	c0,0.496-0.07,0.976-0.189,1.435H6.688c-0.458,0-0.829,0.364-0.829,0.812c0,0.447,0.371,0.812,0.829,0.812h8.131
	c-1.053,1.668-2.934,2.785-5.081,2.785c-3.293,0-5.973-2.621-5.973-5.844s2.68-5.843,5.973-5.843c0.812,0,1.587,0.159,2.294,0.448
	l-2.614,4.616c-0.22,0.394-0.073,0.888,0.327,1.103c0.127,0.068,0.265,0.101,0.4,0.101c0.292,0,0.576-0.151,0.727-0.42l2.586-4.567
	C14.829,19.38,15.711,21.025,15.711,22.872z M28.562,16.617h-5.87c-0.458,0-0.829-0.363-0.829-0.812v-1.213
	c0-0.447,0.371-0.812,0.829-0.812h5.87c-0.104,0.251-0.166,0.524-0.166,0.812v1.213C28.396,16.093,28.456,16.366,28.562,16.617z
	 M32.432,15.806c0,0.447-0.373,0.812-0.83,0.812h-1.717c-0.232-0.198-0.383-0.486-0.383-0.812v-1.213
	c0-0.325,0.15-0.613,0.383-0.812h1.717c0.457,0,0.83,0.364,0.83,0.812V15.806z M31.01,10.58c-0.832,0.001-1.511-0.662-1.511-1.478
	s0.679-1.479,1.511-1.479c0.834,0,1.512,0.664,1.512,1.479S31.844,10.58,31.01,10.58z M39.264,28.717
	c-3.295,0-5.975-2.622-5.975-5.845c0-1.806,0.841-3.42,2.159-4.493l3.12,4.944c0.156,0.247,0.429,0.385,0.707,0.385
	c0.148,0,0.299-0.039,0.436-0.121c0.391-0.235,0.512-0.735,0.27-1.116l-3.119-4.943c0.736-0.317,1.548-0.497,2.4-0.497
	c3.293,0,5.973,2.62,5.973,5.843C45.234,26.095,42.557,28.717,39.264,28.717z M26.625,19.829c0,0.299-0.247,0.541-0.553,0.541
	h-4.593c-0.306,0-0.553-0.242-0.553-0.541s0.247-0.541,0.553-0.541h4.593C26.378,19.288,26.625,19.53,26.625,19.829z M26.625,21.352
	c0,0.299-0.247,0.541-0.553,0.541h-4.593c-0.306,0-0.553-0.242-0.553-0.541c0-0.301,0.247-0.541,0.553-0.541h4.593
	C26.378,20.811,26.625,21.051,26.625,21.352z M26.625,22.872c0,0.299-0.247,0.541-0.553,0.541h-4.593
	c-0.306,0-0.553-0.242-0.553-0.541s0.247-0.541,0.553-0.541h4.593C26.378,22.331,26.625,22.573,26.625,22.872z M1,8.486V3.415
	C1,2.087,2.111,1,3.469,1h8.949c1.357,0,2.469,1.087,2.469,2.415v5.071c0,1.328-1.111,2.415-2.469,2.415H3.469
	C2.111,10.901,1,9.814,1,8.486z"/>
</svg>
