<?xml version="1.0" encoding="utf-8"?>
<!-- Generator: Adobe Illustrator 16.0.0, SVG Export Plug-In . SVG Version: 6.00 Build 0)  -->
<!DOCTYPE svg PUBLIC "-//W3C//DTD SVG 1.1//EN" "http://www.w3.org/Graphics/SVG/1.1/DTD/svg11.dtd">
<svg version="1.1" id="Layer_1" xmlns="http://www.w3.org/2000/svg" xmlns:xlink="http://www.w3.org/1999/xlink" x="0px" y="0px"
	 width="26px" height="26px" viewBox="0 0 26 26" enable-background="new 0 0 26 26" xml:space="preserve">
<g>
	<path id="SVGID_5_" fill="#FFFFFF" d="M13,25.25C6.246,25.25,0.75,19.755,0.75,13S6.246,0.75,13,0.75S25.25,6.246,25.25,13
		S19.755,25.25,13,25.25z M13,2.701c-5.68,0-10.3,4.621-10.3,10.3C2.7,18.682,7.32,23.3,13,23.3c5.68,0,10.299-4.618,10.299-10.299
		C23.299,7.321,18.68,2.701,13,2.701z"/>
	<path id="SVGID_1_" fill="#FFFFFF" d="M5.721,19.186h1.808v-8.387h0.032l1.433,4.893h1.401l1.401-4.908h0.032v8.402h1.824V7.598
		h-2.477L9.744,12.31H9.711l-1.4-4.712h-2.59V19.186L5.721,19.186z M14.904,19.186h3.566c1.531,0,2.59-1.008,2.59-3.25
		c0-1.431-0.569-2.373-1.596-2.633v-0.065c0.896-0.244,1.531-1.137,1.531-2.697c0-1.983-0.961-2.941-2.605-2.941h-3.486V19.186
		L14.904,19.186z M16.939,17.51v-3.347h0.912c0.701,0,1.142,0.487,1.142,1.642c0,1.09-0.359,1.705-1.026,1.705H16.939z
		 M16.939,12.488V9.255h1.026c0.603,0,0.993,0.47,0.993,1.543c0,1.17-0.423,1.69-1.124,1.69H16.939z"/>
</g>
</svg>
