<?xml version="1.0" encoding="utf-8"?>
<!-- Generator: Adobe Illustrator 16.0.0, SVG Export Plug-In . SVG Version: 6.00 Build 0)  -->
<!DOCTYPE svg PUBLIC "-//W3C//DTD SVG 1.1//EN" "http://www.w3.org/Graphics/SVG/1.1/DTD/svg11.dtd">
<svg version="1.1" id="Layer_1" xmlns="http://www.w3.org/2000/svg" xmlns:xlink="http://www.w3.org/1999/xlink" x="0px" y="0px"
	 width="265px" height="61px" viewBox="0 0 265 61" enable-background="new 0 0 265 61" xml:space="preserve">
<g>
	<defs>
		<path id="SVGID_1_" d="M1,60.161h7.286V26.297h0.129l5.776,19.756h5.646l5.647-19.822h0.129v33.931h7.353V13.366h-9.979
			L17.21,32.4h-0.129l-5.646-19.034H1V60.161z M38.174,60.161h8.266V41.128h3.482l5.116,19.033h8.6l-6.232-20.87
			c3.477-1.639,5.708-5.579,5.708-12.271c0-9.252-4.53-13.653-12.272-13.653H38.174V60.161z M46.44,34.958V20.325h3.679
			c3.28,0,4.66,2.755,4.66,7.286c0,5.115-1.638,7.347-4.598,7.347H46.44z M67.205,60.161h7.354v-9.585h-7.354V60.161z
			 M89.716,60.161h14.373c6.171,0,10.437-4.066,10.437-13.128c0-5.776-2.292-9.578-6.43-10.634v-0.259
			c3.606-0.985,6.171-4.592,6.171-10.897c0-8.005-3.877-11.877-10.504-11.877H89.716V60.161z M97.919,53.399V39.884h3.68
			c2.816,0,4.591,1.966,4.591,6.625c0,4.401-1.441,6.891-4.136,6.891H97.919z M97.919,33.122V20.06h4.135
			c2.429,0,4.006,1.904,4.006,6.237c0,4.724-1.707,6.825-4.53,6.825H97.919z M119.08,60.161h8.271V41.128h3.477l5.121,19.033h8.592
			l-6.23-20.87c3.477-1.639,5.707-5.579,5.707-12.271c0-9.252-4.523-13.653-12.271-13.653H119.08V60.161z M127.351,34.958V20.325
			h3.674c3.279,0,4.66,2.755,4.66,7.286c0,5.115-1.641,7.347-4.592,7.347H127.351z M161.11,60.814c7.286,0,13.06-4.066,13.06-12.53
			V24.72c0-8.265-5.773-12.075-12.998-12.075c-7.416,0-13.056,4.267-13.056,12.341v23.496
			C148.116,56.882,153.361,60.814,161.11,60.814z M161.172,53.536c-3.083,0-4.654-2.103-4.654-4.925V24.659
			c0-2.824,1.504-4.797,4.593-4.797c2.885,0,4.659,1.775,4.659,4.66v24.089C165.77,51.366,164.261,53.536,161.172,53.536z
			 M183.645,60.428h7.877l4.857-31.307h0.259l4.728,31.307h7.742l7.286-47.062h-7.349l-3.81,29.402h-0.129l-4.265-29.402h-7.945
			l-4.457,29.536h-0.136l-3.87-29.536h-8.203L183.645,60.428z M219.506,60.161h7.354V30.169h0.129l11.482,29.992h7.483V13.366
			h-7.347v27.042h-0.197l-10.375-27.042h-8.529V60.161z M258.415,13.364c1.541,0,2.935,0.629,3.946,1.641h0.005
			c1.012,1.01,1.634,2.41,1.634,3.945c0,1.541-0.622,2.939-1.634,3.95c-1.011,1.005-2.41,1.634-3.951,1.634
			c-1.536,0-2.933-0.629-3.944-1.634v-0.007c-1.01-1.01-1.634-2.402-1.634-3.943s0.624-2.94,1.634-3.945
			C255.482,13.993,256.875,13.364,258.415,13.364z M261.312,16.054c-0.739-0.741-1.763-1.197-2.897-1.197
			c-1.128,0-2.15,0.456-2.892,1.197c-0.738,0.744-1.201,1.768-1.201,2.896c0,1.134,0.463,2.156,1.201,2.897
			c0.741,0.738,1.764,1.194,2.892,1.194c1.135,0,2.158-0.456,2.897-1.194c0.738-0.747,1.195-1.771,1.195-2.897
			C262.508,17.814,262.051,16.793,261.312,16.054z M120.818,4.092c-0.251-0.056-0.364-0.061-0.275,0.161
			C120.659,4.541,120.696,4.339,120.818,4.092z M111.167,3.932c-0.5,0.1-0.985-0.228-1.085-0.734
			c-0.093-0.498,0.234-0.984,0.734-1.078c1.01-0.197,7.408-1.017,11.027-1.109c0.919-0.024,1.682-0.007,2.175,0.086
			c1.511,0.266,1.955,0.888,0.919,1.979c-0.129,0.13-0.314,0.271-0.573,0.42c0.592-0.02,1.214-0.024,1.867-0.013
			c1.159,0.018,2.28,0.018,3.347,0.018c2.14,0.007,4.014,0.013,6.448,0.166c0.506,0.038,0.894,0.475,0.861,0.98
			c-0.036,0.512-0.473,0.899-0.985,0.87c-2.268-0.149-4.167-0.149-6.337-0.154c-0.998-0.007-2.058-0.007-3.365-0.031
			c-1.922-0.032-3.592,0.092-4.752,0.173c-1.448,0.098-2.349,0.159-2.631-0.58c-0.278-0.709,0.407-1.244,2.243-2.034
			C117.453,3.062,112.073,3.759,111.167,3.932z M256.891,21.762h0.992v-2.28h0.419l0.612,2.28h1.029l-0.746-2.502
			c0.418-0.198,0.684-0.666,0.684-1.468c0-1.109-0.543-1.639-1.467-1.639h-1.523V21.762z M257.883,18.742v-1.758h0.438
			c0.396,0,0.562,0.334,0.562,0.875c0,0.618-0.198,0.883-0.549,0.883H257.883z"/>
	</defs>
	<clipPath id="SVGID_2_">
		<use xlink:href="#SVGID_1_"  overflow="visible"/>
	</clipPath>
	<g clip-path="url(#SVGID_2_)">
		<defs>
			<rect id="SVGID_3_" x="-381" y="-43" width="1024" height="900"/>
		</defs>
		<clipPath id="SVGID_4_">
			<use xlink:href="#SVGID_3_"  overflow="visible"/>
		</clipPath>
		<rect x="-4" y="-4" clip-path="url(#SVGID_4_)" fill="#FFDF22" width="273" height="69.814"/>
	</g>
</g>
</svg>
